<svg viewBox="0 0 144 125">
    <path d="M144 25c0-6.63-2.634-12.989-7.322-17.678A25.004 25.004 0 00119 0H25A25.004 25.004 0 007.322 7.322 25.004 25.004 0 000 25v75c0 6.63 2.634 12.989 7.322 17.678A25.004 25.004 0 0025 125h94c6.63 0 12.989-2.634 17.678-7.322A25.004 25.004 0 00144 100V25z" fill="#b71c1c"/>
    <g fill="none" stroke-width="15">
        <path d="M26.5 50.5h61" stroke="url(#Linear)"/>
        <path d="M26.5 26.5h91" stroke="url(#Linear)"/>
        <path d="M26.5 74.5h31" stroke="url(#Linear)"/>
        <path d="M26.5 98.5h21" stroke="url(#Linear)"/>
    </g>
    <defs>
    <linearGradient id="Linear" x1="0" y1="0" x2="1" y2="0" gradientUnits="userSpaceOnUse" gradientTransform="matrix(144 0 0 144 0 62.5)"><stop offset="0" stop-color="#fff"/><stop offset="1" stop-color="#fff" stop-opacity=".5"/></linearGradient>
    </defs>
</svg>