<svg viewBox="0 0 59 25" xmlns="http://www.w3.org/2000/svg" fill-rule="evenodd" clip-rule="evenodd" stroke-linejoin="round" stroke-miterlimit="1.414"><path d="M15.34 15.508h2.815v3.894H15.34v5.264h-4.932v-5.264H.222L0 16.36 10.357.334h4.983v15.174zm-10.426 0h5.494v-8.59l-.324.552-5.17 8.038zm33.481-.902c0 3.364-.711 5.938-2.133 7.72C34.84 24.109 32.759 25 30.017 25c-2.707 0-4.778-.875-6.211-2.624-1.433-1.749-2.167-4.255-2.201-7.52v-4.478c0-3.398.72-5.977 2.159-7.738C25.202.88 27.276 0 29.983 0c2.707 0 4.778.872 6.211 2.615 1.433 1.744 2.167 4.248 2.201 7.512v4.479zm-4.931-4.913c0-2.017-.282-3.485-.845-4.404S31.177 3.91 29.983 3.91c-1.16 0-2.016.438-2.568 1.312-.552.875-.845 2.242-.879 4.103v5.916c0 1.983.276 3.456.828 4.42.551.963 1.436 1.445 2.653 1.445 1.206 0 2.076-.462 2.611-1.387.534-.924.813-2.339.836-4.244V9.693zm22.721 5.815H59v3.894h-2.815v5.264h-4.932v-5.264H41.067l-.222-3.042L51.202.334h4.983v15.174zm-10.426 0h5.494v-8.59l-.324.552-5.17 8.038z" fill-rule="nonzero"/></svg>
